<?xml version="1.0" encoding="UTF-8" standalone="no"?>
<!-- Created with Inkscape (http://www.inkscape.org/) -->

<svg
   xmlns:dc="http://purl.org/dc/elements/1.1/"
   xmlns:cc="http://creativecommons.org/ns#"
   xmlns:rdf="http://www.w3.org/1999/02/22-rdf-syntax-ns#"
   xmlns:svg="http://www.w3.org/2000/svg"
   xmlns="http://www.w3.org/2000/svg"
   xmlns:sodipodi="http://sodipodi.sourceforge.net/DTD/sodipodi-0.dtd"
   xmlns:inkscape="http://www.inkscape.org/namespaces/inkscape"
   width="22.046482mm"
   height="75.730659mm"
   viewBox="0 0 22.046482 75.730659"
   version="1.1"
   id="svg4631"
   sodipodi:docname="messages.svg"
   inkscape:version="0.92.1 r15371">
  <defs
     id="defs4625" />
  <sodipodi:namedview
     id="base"
     pagecolor="#ffffff"
     bordercolor="#666666"
     borderopacity="1.0"
     inkscape:pageopacity="0.0"
     inkscape:pageshadow="2"
     inkscape:zoom="1.4034653"
     inkscape:cx="-61.88146"
     inkscape:cy="106.04201"
     inkscape:document-units="mm"
     inkscape:current-layer="layer1"
     showgrid="false"
     inkscape:window-width="1096"
     inkscape:window-height="750"
     inkscape:window-x="2147"
     inkscape:window-y="199"
     inkscape:window-maximized="0"
     fit-margin-top="0"
     fit-margin-left="0"
     fit-margin-right="0"
     fit-margin-bottom="0"
     showguides="false" />
  <metadata
     id="metadata4628">
    <rdf:RDF>
      <cc:Work
         rdf:about="">
        <dc:format>image/svg+xml</dc:format>
        <dc:type
           rdf:resource="http://purl.org/dc/dcmitype/StillImage" />
        <dc:title></dc:title>
      </cc:Work>
    </rdf:RDF>
  </metadata>
  <g
     inkscape:label="Layer 1"
     inkscape:groupmode="layer"
     id="layer1"
     transform="translate(-6.0546256,-7.3885484)">
    <g
       id="g5232"
       transform="matrix(0.04877521,0,0,0.04877521,4.0747969,5.0473383)"
       style="fill:#6ebf59;fill-opacity:1;stroke-width:5.42454481">
      <path
         id="path5230"
         d="M 256,48 C 141.1,48 48,141.1 48,256 48,370.9 141.1,464 256,464 370.9,464 464,370.9 464,256 464,141.1 370.9,48 256,48 Z m -32.1,281.7 c -2.4,2.4 -5.8,4.4 -8.8,4.4 -3,0 -6.4,-2.1 -8.9,-4.5 l -56,-56 17.8,-17.8 47.2,47.2 124.8,-125.7 17.5,18.1 z"
         inkscape:connector-curvature="0"
         style="fill:#6ebf59;fill-opacity:1;stroke-width:5.42454481" />
    </g>
    <g
       id="g5247"
       transform="matrix(0.04877521,0,0,0.04877521,3.7152449,33.547827)"
       style="fill:#de4848;fill-opacity:1;stroke-width:5.42454481">
      <path
         id="path5245"
         d="m 403.1,108.9 c -81.2,-81.2 -212.9,-81.2 -294.2,0 -81.3,81.2 -81.2,212.9 0,294.2 81.2,81.2 212.9,81.2 294.2,0 81.3,-81.2 81.2,-213 0,-294.2 z M 352,340.2 340.2,352 l -84.4,-84.2 -84,83.8 -11.8,-11.8 84,-83.8 -84,-83.8 11.8,-11.8 84,83.8 84.4,-84.2 11.8,11.8 -84.4,84.2 z"
         class="st0"
         inkscape:connector-curvature="0"
         style="fill:#de4848;fill-opacity:1;stroke-width:5.42454481" />
    </g>
    <g
       id="g5261"
       transform="matrix(0.04877521,0,0,0.04877521,4.6893676,61.267914)"
       style="fill:#e5c438;fill-opacity:1;stroke-width:5.42454481">
      <path
         id="path5259"
         d="M 476.7,422.2 270.1,72.7 c -2.9,-5 -8.3,-8.7 -14.1,-8.7 -5.9,0 -11.3,3.7 -14.1,8.7 L 35.3,422.2 c -2.8,5 -4.8,13 -1.9,17.9 2.9,4.9 8.2,7.9 14,7.9 h 417.1 c 5.8,0 11.1,-3 14,-7.9 3,-4.9 1,-13 -1.8,-17.9 z"
         inkscape:connector-curvature="0"
         style="fill:#e5c438;fill-opacity:1;stroke-width:5.42454481"
         sodipodi:nodetypes="ccsccssscc" />
      <g
         aria-label="!"
         transform="matrix(1.0154347,0,0,0.98479991,4.4530561,0)"
         style="font-style:normal;font-variant:normal;font-weight:normal;font-stretch:normal;font-size:312.28872681px;line-height:195.18045044px;font-family:FontAwesome;-inkscape-font-specification:FontAwesome;letter-spacing:0px;word-spacing:0px;fill:#ffffff;fill-opacity:1;stroke:none;stroke-width:5.42454529px;stroke-linecap:butt;stroke-linejoin:miter;stroke-opacity:1"
         id="text5293">
        <path
           d="m 234.76678,366.4395 h 25.62557 v 26.59874 h -25.62557 z m 0,-192.88449 h 25.62557 v 119.16362 l 0.26052,44.77848 -25.74184,0.28719 -0.14425,-45.06567 z"
           style="fill:#ffffff;fill-opacity:1;stroke-width:5.42454529px"
           id="path5295"
           inkscape:connector-curvature="0"
           sodipodi:nodetypes="cccccccccccc" />
      </g>
    </g>
  </g>
  <style
     id="style5243"
     type="text/css"><![CDATA[
	.st0{fill:#010101;}
]]></style>
</svg>
