<!-- This file is included in the page template -->

<svg style="display: none;">
  <symbol id="menu-bars" viewBox="0 0 24 24">
    <path d="M 0 0 L 0 2.5 L 20.65625 2.5 L 20.65625 0 L 0 0 z M 0 7.5 L 0 10 L 20.65625 10 L 20.65625 7.5 L 0 7.5 z M 0 15 L 0 17.5 L 20.65625 17.5 L 20.65625 15 L 0 15 z " />
  </symbol>
  <symbol id="list" fill="currentColor" viewBox="0 0 24 24">
    <path d="M3,13H5V11H3Zm0,4H5V15H3ZM3,9H5V7H3Zm4,4H21V11H7Zm0,4H21V15H7ZM7,7V9H21V7ZM3,13H5V11H3Zm0,4H5V15H3ZM3,9H5V7H3Zm4,4H21V11H7Zm0,4H21V15H7ZM7,7V9H21V7Z">
  </symbol>
  <symbol id="teaser" fill="currentColor" viewBox="0 0 24 24">
    <path d="M11,12H22V10H11Zm0-4H22V6H11ZM3,14v2H7v4H9V16h4V14H9V10H7v4Zm19,0H15v2h7Z"/>
  </symbol>
  <symbol id="table" fill="currentColor"  viewBox="0 0 24 24">
    <path d="M19,7H9A2.006,2.006,0,0,0,7,9V19a2.006,2.006,0,0,0,2,2H19a2.006,2.006,0,0,0,2-2V9A2.006,2.006,0,0,0,19,7Zm0,2v2H9V9Zm-6,6V13h2v2Zm2,2v2H13V17Zm-4-2H9V13h2Zm6-2h2v2H17ZM9,17h2v2H9Zm8,2V17h2v2ZM6,17H5a2.006,2.006,0,0,1-2-2V5A2.006,2.006,0,0,1,5,3H15a2.006,2.006,0,0,1,2,2V6H15V5H5V15H6Z"/>
  </symbol>
  <symbol id="speaker-marker" viewBox="0 0 17 21" >
    <path fill="currentColor" d="M8.86719 9.23572C10.1972 9.23572 12.8672 9.91615 12.8672 11.2668V11.4293C11.8972 12.5668 10.4672 13.298 8.86719 13.298C7.26719 13.298 5.83719 12.5668 4.86719 11.4293V11.2668C4.86719 9.91615 7.53719 9.23572 8.86719 9.23572ZM8.86719 8.22017C7.76719 8.22017 6.86719 7.30616 6.86719 6.18905C6.86719 5.07194 7.76719 4.15793 8.86719 4.15793C9.96719 4.15793 10.8672 5.07194 10.8672 6.18905C10.8672 7.30616 9.96719 8.22017 8.86719 8.22017ZM14.8672 8.42328C14.8672 4.7368 12.2172 2.12682 8.86719 2.12682C5.51719 2.12682 2.86719 4.7368 2.86719 8.42328C2.86719 10.7997 4.81719 13.9479 8.86719 17.7055C12.9172 13.9479 14.8672 10.7997 14.8672 8.42328ZM8.86719 0.0957031C13.0672 0.0957031 16.8672 3.3658 16.8672 8.42328C16.8672 11.7949 14.1972 15.7861 8.86719 20.4069C3.53719 15.7861 0.867188 11.7949 0.867188 8.42328C0.867188 3.3658 4.66719 0.0957031 8.86719 0.0957031Z" />
  </symbol>
  <symbolid="advanced-search"  fill="currentColor"  viewBox="0 0 24 24">
    <path d="M0,0H24V24H0Z"/><path class="cls-2" d="M7,9H2V7H7Zm0,3H2v2H7Zm13.59,7-3.83-3.83A5,5,0,1,1,19,11a4.979,4.979,0,0,1-.83,2.75L22,17.59ZM17,11a3,3,0,1,0-3,3A3.009,3.009,0,0,0,17,11ZM2,19H12V17H2Z"/>
  </symbol>
  <symbol id="close-x" viewBox="0 0 24 24">
    <path fill="currentColor" d="M19,6.41L17.59,5L12,10.59L6.41,5L5,6.41L10.59,12L5,17.59L6.41,19L12,13.41L17.59,19L19,17.59L13.41,12L19,6.41Z" />
  </symbol>
  <symbol id="advanced-search" viewBox="0 0 24 24">
    <path fill="currentColor" d="M7,9H2V7H7Zm0,3H2v2H7Zm13.59,7-3.83-3.83A5,5,0,1,1,19,11a4.979,4.979,0,0,1-.83,2.75L22,17.59ZM17,11a3,3,0,1,0-3,3A3.009,3.009,0,0,0,17,11ZM2,19H12V17H2Z"/>
  </symbol>
  <symbol id="menu-toggle" fill="currentColor">
    <path d="M 0 0 L 0 2.5 L 20.65625 2.5 L 20.65625 0 L 0 0 z M 0 7.5 L 0 10 L 20.65625 10 L 20.65625 7.5 L 0 7.5 z M 0 15 L 0 17.5 L 20.65625 17.5 L 20.65625 15 L 0 15 z " />
  </symbol>
  <symbol id="chevron-down" fill="currentColor">
    <path d="M11.9999 13.1714L16.9497 8.22168L18.3639 9.63589L11.9999 15.9999L5.63599 9.63589L7.0502 8.22168L11.9999 13.1714Z"></path>
  </symbol>
  <symbol id="chevron-right" viewBox="0 0 24 24" fill="currentColor">
    <path d="M13.1717 12.0007L8.22192 7.05093L9.63614 5.63672L16.0001 12.0007L9.63614 18.3646L8.22192 16.9504L13.1717 12.0007Z"></path>
  </symbol>
  <symbol id="search" fill="currentColor" viewBox="0 0 24 24">
    <path d="M18.031 16.6168L22.3137 20.8995L20.8995 22.3137L16.6168 18.031C15.0769 19.263 13.124 20 11 20C6.032 20 2 15.968 2 11C2 6.032 6.032 2 11 2C15.968 2 20 6.032 20 11C20 13.124 19.263 15.0769 18.031 16.6168ZM16.0247 15.8748C17.2475 14.6146 18 12.8956 18 11C18 7.1325 14.8675 4 11 4C7.1325 4 4 7.1325 4 11C4 14.8675 7.1325 18 11 18C12.8956 18 14.6146 17.2475 15.8748 16.0247L16.0247 15.8748Z"></path>
  </symbol>
  <symbol id="sun" viewBox="0 0 24 24" fill="currentColor">
    <path d="M12 18C8.68629 18 6 15.3137 6 12C6 8.68629 8.68629 6 12 6C15.3137 6 18 8.68629 18 12C18 15.3137 15.3137 18 12 18ZM12 16C14.2091 16 16 14.2091 16 12C16 9.79086 14.2091 8 12 8C9.79086 8 8 9.79086 8 12C8 14.2091 9.79086 16 12 16ZM11 1H13V4H11V1ZM11 20H13V23H11V20ZM3.51472 4.92893L4.92893 3.51472L7.05025 5.63604L5.63604 7.05025L3.51472 4.92893ZM16.9497 18.364L18.364 16.9497L20.4853 19.0711L19.0711 20.4853L16.9497 18.364ZM19.0711 3.51472L20.4853 4.92893L18.364 7.05025L16.9497 5.63604L19.0711 3.51472ZM5.63604 16.9497L7.05025 18.364L4.92893 20.4853L3.51472 19.0711L5.63604 16.9497ZM23 11V13H20V11H23ZM4 11V13H1V11H4Z"></path>
  </symbol>
  <symbol id="moon" viewBox="0 0 24 24" fill="currentColor">
    <path d="M10 7C10 10.866 13.134 14 17 14C18.9584 14 20.729 13.1957 21.9995 11.8995C22 11.933 22 11.9665 22 12C22 17.5228 17.5228 22 12 22C6.47715 22 2 17.5228 2 12C2 6.47715 6.47715 2 12 2C12.0335 2 12.067 2 12.1005 2.00049C10.8043 3.27098 10 5.04157 10 7ZM4 12C4 16.4183 7.58172 20 12 20C15.0583 20 17.7158 18.2839 19.062 15.7621C18.3945 15.9187 17.7035 16 17 16C12.0294 16 8 11.9706 8 7C8 6.29648 8.08133 5.60547 8.2379 4.938C5.71611 6.28423 4 8.9417 4 12Z"></path>
  </symbol>
  <symbol id="cog" viewBox="0 0 24 24" fill="currentColor">
    <path d="M12 1L21.5 6.5V17.5L12 23L2.5 17.5V6.5L12 1ZM12 3.311L4.5 7.65311V16.3469L12 20.689L19.5 16.3469V7.65311L12 3.311ZM12 16C9.79086 16 8 14.2091 8 12C8 9.79086 9.79086 8 12 8C14.2091 8 16 9.79086 16 12C16 14.2091 14.2091 16 12 16ZM12 14C13.1046 14 14 13.1046 14 12C14 10.8954 13.1046 10 12 10C10.8954 10 10 10.8954 10 12C10 13.1046 10.8954 14 12 14Z"></path>
  </symbol>
  <symbol id="laptop" viewBox="0 0 24 24" fill="currentColor">
    <path d="M4 5V16H20V5H4ZM2 4.00748C2 3.45107 2.45531 3 2.9918 3H21.0082C21.556 3 22 3.44892 22 4.00748V18H2V4.00748ZM1 19H23V21H1V19Z"></path>
  </symbol>
</svg>
