<svg style="display: none;">
  <symbol id="list" fill="currentColor" viewBox="0 0 24 24">
    <path d="M3,13H5V11H3Zm0,4H5V15H3ZM3,9H5V7H3Zm4,4H21V11H7Zm0,4H21V15H7ZM7,7V9H21V7ZM3,13H5V11H3Zm0,4H5V15H3ZM3,9H5V7H3Zm4,4H21V11H7Zm0,4H21V15H7ZM7,7V9H21V7Z"
  </symbol>
  <symbol id="teaser" fill="currentColor" viewBox="0 0 24 24">
    <path d="M11,12H22V10H11Zm0-4H22V6H11ZM3,14v2H7v4H9V16h4V14H9V10H7v4Zm19,0H15v2h7Z"/>
  </symbol>
  <symbol id="table" fill="currentColor"  viewBox="0 0 24 24">
    <path d="M19,7H9A2.006,2.006,0,0,0,7,9V19a2.006,2.006,0,0,0,2,2H19a2.006,2.006,0,0,0,2-2V9A2.006,2.006,0,0,0,19,7Zm0,2v2H9V9Zm-6,6V13h2v2Zm2,2v2H13V17Zm-4-2H9V13h2Zm6-2h2v2H17ZM9,17h2v2H9Zm8,2V17h2v2ZM6,17H5a2.006,2.006,0,0,1-2-2V5A2.006,2.006,0,0,1,5,3H15a2.006,2.006,0,0,1,2,2V6H15V5H5V15H6Z"/>
  </symbol>
  <symbol id="speaker-marker" viewBox="0 0 17 21" >
    <path fill="currentColor" d="M8.86719 9.23572C10.1972 9.23572 12.8672 9.91615 12.8672 11.2668V11.4293C11.8972 12.5668 10.4672 13.298 8.86719 13.298C7.26719 13.298 5.83719 12.5668 4.86719 11.4293V11.2668C4.86719 9.91615 7.53719 9.23572 8.86719 9.23572ZM8.86719 8.22017C7.76719 8.22017 6.86719 7.30616 6.86719 6.18905C6.86719 5.07194 7.76719 4.15793 8.86719 4.15793C9.96719 4.15793 10.8672 5.07194 10.8672 6.18905C10.8672 7.30616 9.96719 8.22017 8.86719 8.22017ZM14.8672 8.42328C14.8672 4.7368 12.2172 2.12682 8.86719 2.12682C5.51719 2.12682 2.86719 4.7368 2.86719 8.42328C2.86719 10.7997 4.81719 13.9479 8.86719 17.7055C12.9172 13.9479 14.8672 10.7997 14.8672 8.42328ZM8.86719 0.0957031C13.0672 0.0957031 16.8672 3.3658 16.8672 8.42328C16.8672 11.7949 14.1972 15.7861 8.86719 20.4069C3.53719 15.7861 0.867188 11.7949 0.867188 8.42328C0.867188 3.3658 4.66719 0.0957031 8.86719 0.0957031Z" />
  </symbol>
  <symbolid="advanced-search"  fill="currentColor"  viewBox="0 0 24 24">
    <path d="M0,0H24V24H0Z"/><path class="cls-2" d="M7,9H2V7H7Zm0,3H2v2H7Zm13.59,7-3.83-3.83A5,5,0,1,1,19,11a4.979,4.979,0,0,1-.83,2.75L22,17.59ZM17,11a3,3,0,1,0-3,3A3.009,3.009,0,0,0,17,11ZM2,19H12V17H2Z"/>
  </symbol>
  <symbol id="close-x" viewBox="0 0 24 24">
    <path fill="currentColor" d="M19,6.41L17.59,5L12,10.59L6.41,5L5,6.41L10.59,12L5,17.59L6.41,19L12,13.41L17.59,19L19,17.59L13.41,12L19,6.41Z" />
  </symbol>
  <symbol id="advanced-search" viewBox="0 0 24 24">
    <path fill="currentColor" d="M7,9H2V7H7Zm0,3H2v2H7Zm13.59,7-3.83-3.83A5,5,0,1,1,19,11a4.979,4.979,0,0,1-.83,2.75L22,17.59ZM17,11a3,3,0,1,0-3,3A3.009,3.009,0,0,0,17,11ZM2,19H12V17H2Z"/>
  </symbol>
  <symbol id="menu-toggle"  fill="currentColor">
    <path d="M 0 0 L 0 2.5 L 20.65625 2.5 L 20.65625 0 L 0 0 z M 0 7.5 L 0 10 L 20.65625 10 L 20.65625 7.5 L 0 7.5 z M 0 15 L 0 17.5 L 20.65625 17.5 L 20.65625 15 L 0 15 z " />
  </symbol>
  <symbol id="search-toggle"  fill="currentColor" viewBox="0 0 24 24">
    <path d="M9.5,3A6.5,6.5 0 0,1 16,9.5C16,11.11 15.41,12.59 14.44,13.73L14.71,14H15.5L20.5,19L19,20.5L14,15.5V14.71L13.73,14.44C12.59,15.41 11.11,16 9.5,16A6.5,6.5 0 0,1 3,9.5A6.5,6.5 0 0,1 9.5,3M9.5,5C7,5 5,7 5,9.5C5,12 7,14 9.5,14C12,14 14,12 14,9.5C14,7 12,5 9.5,5Z" />
  </symbol>
</svg>
