<?xml version="1.0" encoding="utf-8"?>
<svg id="master-artboard" viewBox="0 0 1400 980" version="1.1" xmlns="http://www.w3.org/2000/svg" x="0px" y="0px" style="enable-background:new 0 0 336 235.2;" width="1400px" height="980px"><g transform="matrix(61.25, 0, 0, 61.25, 209.99998843114554, 0.000003856284820358269)"><path d="M6.354 5.5H4a3 3 0 0 0 0 6h3a3 3 0 0 0 2.83-4H9c-.086 0-.17.01-.25.031A2 2 0 0 1 7 10.5H4a2 2 0 1 1 0-4h1.535c.218-.376.495-.714.82-1z" style="fill: rgb(242, 242, 242);"/><path d="M9 5.5a3 3 0 0 0-2.83 4h1.098A2 2 0 0 1 9 6.5h3a2 2 0 1 1 0 4h-1.535a4.02 4.02 0 0 1-.82 1H12a3 3 0 1 0 0-6H9z" style="fill: rgb(242, 242, 242);"/></g></svg>